<svg width="648" height="327" viewBox="0 0 648 327" fill="none" xmlns="http://www.w3.org/2000/svg">
<g clip-path="url(#clip0_390_3756)">
<path d="M121.123 75.7593L121.123 75.7641C120.582 79.828 117.023 82.8036 112.902 82.8036H47.7209C42.975 82.8036 39.1396 78.8522 39.3909 74.1349C39.4211 74.016 39.4223 73.9209 39.4223 73.8494C40.0704 64.8321 47.4806 57.6476 56.5151 57.2214C60.0086 57.0617 63.2884 57.9136 66.1167 59.4859L66.9158 59.9301L66.8587 59.0177C66.8312 58.5777 66.8048 58.1549 66.8048 57.7075C66.8048 47.8006 74.8582 39.7564 84.7792 39.7564C94.2208 39.7564 101.927 46.9744 102.7 56.1889L102.742 56.681L103.234 56.6458C103.619 56.6184 104.014 56.5923 104.377 56.5923C113.722 56.5923 121.283 64.1706 121.283 73.4758C121.283 74.247 121.229 75.0172 121.123 75.7593Z" stroke="#A9D6F7"/>
<path d="M568.311 105.046L568.311 105.046L568.322 105.046C571.626 105.211 574.023 106.568 575.578 108.487C577.14 110.415 577.875 112.94 577.783 115.462C577.691 117.983 576.773 120.47 575.071 122.321C573.463 124.069 571.136 125.272 568.079 125.39V125.372H567.579H501.548C495.632 125.372 492.072 121.132 491.422 116.478C490.772 111.828 493.04 106.86 498.766 105.387C500.483 104.959 502.251 104.718 504.097 104.718C507.392 104.718 510.498 105.467 513.283 106.804L513.904 107.103L513.995 106.42C515.497 95.1122 525.183 86.3768 536.907 86.3768C548.39 86.3768 557.915 94.7372 559.712 105.695L559.807 106.27L560.36 106.09C562.502 105.395 564.835 105.02 567.223 105.02C567.609 105.02 567.948 105.02 568.311 105.046Z" stroke="#A9D6F7"/>
<path d="M448.31 19.1688L448.31 19.1689L448.322 19.1695C451.619 19.3272 454.012 20.6795 455.566 22.5943C457.127 24.5186 457.862 27.0411 457.772 29.5613C457.681 32.0812 456.766 34.5674 455.066 36.4176C453.374 38.2593 450.882 39.4956 447.578 39.4956H381.602C375.686 39.4956 372.126 35.2548 371.476 30.6016C370.826 25.9511 373.094 20.9826 378.821 19.5103C380.51 19.082 382.277 18.8416 384.124 18.8416C387.418 18.8416 390.524 19.5904 393.309 20.9276L393.932 21.2266L394.021 20.5416C395.497 9.23535 405.182 0.5 416.906 0.5C428.388 0.5 437.887 8.85958 439.712 19.8198L439.807 20.3925L440.359 20.2133C442.501 19.5179 444.834 19.1427 447.222 19.1427C447.608 19.1427 447.947 19.1429 448.31 19.1688Z" stroke="#A9D6F7"/>
<path d="M245.815 236.007L129.076 215.423L131.189 203.439L223.173 104.209L240.04 107.184L216.369 136.306L155.426 202.907L248.75 219.362L245.815 236.007ZM216.766 269.673L196.015 266.014L224.504 104.444L245.255 108.103L216.766 269.673Z" fill="#3265B1"/>
<path d="M507.736 215.341L390.997 235.925L388.884 223.94L441.381 99.2351L458.248 96.261L445.965 131.723L411.476 215.151L504.8 198.695L507.736 215.341ZM491.953 256.911L471.202 260.57L442.713 99.0003L463.464 95.3413L491.953 256.911Z" fill="#3265B1"/>
<path d="M375.624 229.026C375.624 246.829 373.521 261.027 369.314 271.619C365.182 282.136 359.248 289.723 351.511 294.38C343.773 298.962 334.608 301.254 324.017 301.254C313.575 301.254 304.448 298.962 296.635 294.38C288.823 289.723 282.738 282.136 278.381 271.619C274.099 261.027 271.958 246.829 271.958 229.026V203.898C271.958 186.019 274.062 171.897 278.268 161.53C282.55 151.163 288.56 143.764 296.297 139.332C304.11 134.9 313.274 132.684 323.791 132.684C334.383 132.684 343.548 134.9 351.285 139.332C359.023 143.764 364.995 151.163 369.201 161.53C373.483 171.897 375.624 186.019 375.624 203.898V229.026ZM354.553 200.405C354.553 188.085 353.389 178.207 351.06 170.77C348.731 163.333 345.276 157.962 340.693 154.657C336.111 151.276 330.477 149.586 323.791 149.586C317.181 149.586 311.584 151.276 307.002 154.657C302.419 157.962 298.926 163.333 296.523 170.77C294.194 178.207 293.029 188.085 293.029 200.405V232.293C293.029 244.538 294.231 254.491 296.635 262.154C299.039 269.816 302.532 275.45 307.114 279.056C311.772 282.586 317.406 284.352 324.017 284.352C330.777 284.352 336.411 282.586 340.919 279.056C345.426 275.45 348.806 269.816 351.06 262.154C353.389 254.491 354.553 244.538 354.553 232.293V200.405Z" fill="#3265B1"/>
<path d="M648 245H0V327.126H648V245Z" fill="white"/>
<path d="M142.768 298.735H118.147C118.059 298.735 118 298.676 118 298.588V297.56C118 297.472 118.059 297.413 118.147 297.413H142.768C142.856 297.413 142.915 297.472 142.915 297.56V298.588C142.915 298.647 142.856 298.735 142.768 298.735Z" fill="#A9D6F7"/>
<path d="M210.395 298.735H185.774C185.686 298.735 185.627 298.676 185.627 298.588V297.56C185.627 297.472 185.686 297.413 185.774 297.413H210.395C210.484 297.413 210.542 297.472 210.542 297.56V298.588C210.542 298.647 210.454 298.735 210.395 298.735Z" fill="#A9D6F7"/>
<path d="M271.933 282.87H247.312C247.224 282.87 247.165 282.811 247.165 282.723V281.695C247.165 281.607 247.224 281.548 247.312 281.548H271.933C272.022 281.548 272.081 281.607 272.081 281.695V282.723C272.081 282.782 271.992 282.87 271.933 282.87Z" fill="#A9D6F7"/>
<path d="M306.909 300.409H282.288C282.2 300.409 282.141 300.35 282.141 300.262V299.234C282.141 299.146 282.2 299.087 282.288 299.087H306.909C306.997 299.087 307.056 299.146 307.056 299.234V300.262C307.056 300.321 306.997 300.409 306.909 300.409Z" fill="#A9D6F7"/>
<path d="M393.274 300.409H368.653C368.565 300.409 368.506 300.35 368.506 300.262V299.234C368.506 299.146 368.565 299.087 368.653 299.087H393.274C393.362 299.087 393.421 299.146 393.421 299.234V300.262C393.421 300.321 393.362 300.409 393.274 300.409Z" fill="#A9D6F7"/>
<path d="M489.876 299.41H465.255C465.167 299.41 465.108 299.351 465.108 299.263V298.235C465.108 298.147 465.167 298.088 465.255 298.088H489.876C489.964 298.088 490.023 298.147 490.023 298.235V299.263C490.023 299.351 489.964 299.41 489.876 299.41Z" fill="#A9D6F7"/>
<path d="M182.98 280.285H158.359C158.27 280.285 158.212 280.226 158.212 280.138V279.11C158.212 279.021 158.27 278.963 158.359 278.963H182.98C183.068 278.963 183.127 279.021 183.127 279.11V280.138C183.127 280.226 183.068 280.285 182.98 280.285Z" fill="#A9D6F7"/>
<path d="M354.916 279.638H330.295C330.206 279.638 330.148 279.58 330.148 279.492V278.463C330.148 278.375 330.206 278.316 330.295 278.316H354.916C355.004 278.316 355.063 278.375 355.063 278.463V279.492C355.063 279.58 355.004 279.638 354.916 279.638Z" fill="#A9D6F7"/>
<path d="M530.088 279.521H505.467C505.378 279.521 505.319 279.462 505.319 279.374V278.346C505.319 278.258 505.378 278.199 505.467 278.199H530.088C530.176 278.199 530.235 278.258 530.235 278.346V279.374C530.235 279.462 530.176 279.521 530.088 279.521Z" fill="#A9D6F7"/>
<path d="M443.87 273.322H419.248C419.16 273.322 419.101 273.263 419.101 273.175V272.147C419.101 272.059 419.16 272 419.248 272H443.87C443.958 272 444.017 272.059 444.017 272.147V273.175C444.017 273.263 443.958 273.322 443.87 273.322Z" fill="#A9D6F7"/>
</g>
<defs>
<clipPath id="clip0_390_3756">
<rect width="648" height="327" fill="white"/>
</clipPath>
</defs>
</svg>
