<svg width="1440" height="383" viewBox="0 0 1440 383" fill="none" xmlns="http://www.w3.org/2000/svg">
<circle cx="720.5" cy="199.5" r="118.5" fill="#EBF0F7"/>
<path d="M1274.75 184.069H839V203H1258.38H1295.11C1295.66 203 1296.11 202.552 1296.11 202V21.7159C1296.11 20.059 1297.45 18.7159 1299.11 18.7159H1460V1L1278.75 1.00018C1278.19 1.00018 1277.75 1.44789 1277.75 2.00018V9.25052V181.069C1277.75 182.726 1276.4 184.069 1274.75 184.069Z" stroke="#3265B1" stroke-width="2"/>
<path d="M847.706 203V184H838.706V203H847.706Z" fill="#D5E3F3" stroke="#3265B1" stroke-width="2"/>
<path d="M853 194H1286.5V10.5H1449.5" stroke="#3265B1" stroke-dasharray="8 8"/>
<path d="M783.404 248.349C777.462 248.349 772.659 243.596 772.56 237.654V237.505V152.685V152.536C772.659 146.595 777.462 141.841 783.404 141.841C789.346 141.841 794.149 146.595 794.248 152.536H804.647C823.561 152.536 838.862 167.886 838.862 186.752V203.389C838.862 222.304 823.512 237.604 804.647 237.604H794.248C794.199 243.546 789.346 248.349 783.404 248.349Z" fill="white"/>
<path d="M773.601 152.539C773.699 147.2 778.069 142.834 783.404 142.834C788.741 142.834 793.157 147.153 793.206 152.538C793.206 153.109 793.708 153.529 794.247 153.529H804.646C822.955 153.529 837.869 168.443 837.869 186.752V203.39C837.869 221.699 822.955 236.613 804.646 236.613H794.247C793.708 236.613 793.207 237.033 793.206 237.603C793.108 242.942 788.738 247.308 783.404 247.308C778.067 247.308 773.65 242.94 773.601 237.604C773.601 237.604 773.601 237.603 773.601 237.603L773.401 237.605M773.601 152.539L773.401 237.605M773.601 152.539V152.539V152.539V152.54V152.54V152.54V152.541V152.541V152.541V152.541V152.542V152.542V152.542V152.543V152.543V152.543V152.544V152.544V152.544V152.544V152.545V152.545V152.545V152.546V152.546V152.546V152.546V152.547V152.547V152.547V152.548V152.548V152.548V152.548V152.549V152.549V152.549V152.55V152.55V152.55V152.55V152.551V152.551V152.551V152.552V152.552V152.552V152.553V152.553V152.553V152.553V152.554V152.554V152.554V152.555V152.555V152.555V152.555V152.556V152.556V152.556V152.557V152.557V152.557V152.557V152.558V152.558V152.558V152.559V152.559V152.559V152.559V152.56V152.56V152.56V152.561V152.561V152.561V152.562V152.562V152.562V152.562V152.563V152.563V152.563V152.564V152.564V152.564V152.564V152.565V152.565V152.565V152.566V152.566V152.566V152.566V152.567V152.567V152.567V152.568V152.568V152.568V152.568V152.569V152.569V152.569V152.57V152.57V152.57V152.57V152.571V152.571V152.571V152.572V152.572V152.572V152.573V152.573V152.573V152.573V152.574V152.574V152.574V152.575V152.575V152.575V152.575V152.576V152.576V152.576V152.577V152.577V152.577V152.577V152.578V152.578V152.578V152.579V152.579V152.579V152.579V152.58V152.58V152.58V152.581V152.581V152.581V152.582V152.582V152.582V152.582V152.583V152.583V152.583V152.584V152.584V152.584V152.584V152.585V152.585V152.585V152.586V152.586V152.586V152.586V152.587V152.587V152.587V152.588V152.588V152.588V152.588V152.589V152.589V152.589V152.59V152.59V152.59V152.591V152.591V152.591V152.591V152.592V152.592V152.592V152.593V152.593V152.593V152.593V152.594V152.594V152.594V152.595V152.595V152.595V152.595V152.596V152.596V152.596V152.597V152.597V152.597V152.597V152.598V152.598V152.598V152.599V152.599V152.599V152.6V152.6V152.6V152.6V152.601V152.601V152.601V152.602V152.602V152.602V152.602V152.603V152.603V152.603V152.604V152.604V152.604V152.604V152.605V152.605V152.605V152.606V152.606V152.606V152.606V152.607V152.607V152.607V152.608V152.608V152.608V152.609V152.609V152.609V152.609V152.61V152.61V152.61V152.611V152.611V152.611V152.611V152.612V152.612V152.612V152.613V152.613V152.613V152.613V152.614V152.614V152.614V152.615V152.615V152.615V152.615V152.616V152.616V152.616V152.617V152.617V152.617V152.618V152.618V152.618V152.618V152.619V152.619V152.619V152.62V152.62V152.62V152.62V152.621V152.621V152.621V152.622V152.622V152.622V152.622V152.623V152.623V152.623V152.624V152.624V152.624V152.624V152.625V152.625V152.625V152.626V152.626V152.626V152.626V152.627V152.627V152.627V152.628V152.628V152.628V152.629V152.629V152.629V152.629V152.63V152.63V152.63V152.631V152.631V152.631V152.631V152.632V152.632V152.632V152.633V152.633V152.633V152.633V152.634V152.634V152.634V152.635V152.635V152.635V152.635V152.636V152.636V152.636V152.637V152.637V152.637V152.638V152.638V152.638V152.638V152.639V152.639V152.639V152.64V152.64V152.64V152.64V152.641V152.641V152.641V152.642V152.642V152.642V152.642V152.643V152.643V152.643V152.644V152.644V152.644V152.644V152.645V152.645V152.645V152.646V152.646V152.646V152.647V152.647V152.647V152.647V152.648V152.648V152.648V152.649V152.649V152.649V152.649V152.65V152.65V152.65V152.651V152.651V152.651V152.651V152.652V152.652V152.652V152.653V152.653V152.653V152.653V152.654V152.654V152.654V152.655V152.655V152.655V152.656V152.656V152.656V152.656V152.657V152.657V152.657V152.658V152.658V152.658V152.658V152.659V152.659V152.659V152.66V152.66V152.66V152.66V152.661V152.661V152.661V152.662V152.662V152.662V152.662V152.663V152.663V152.663V152.664V152.664V152.664V152.665V152.665V152.665V152.665V152.666V152.666V152.666V152.667V152.667V152.667V152.667V152.668V152.668V152.668V152.669V152.669V152.669V152.669V152.67V152.67V152.67V152.671V152.671V152.671V152.671V152.672V152.672V152.672V152.673V152.673V152.673V152.673V152.674V152.674V152.674V152.675V152.675V152.675V152.676V152.676V152.676V152.676V152.677V152.677V152.677V152.678V152.678V152.678V152.678V152.679V152.679V152.679V152.68V152.68V152.68V152.68V152.681V152.681V152.681V152.682V152.682V152.682V152.682V152.683V152.683V152.683V152.684V152.684V152.684V152.685V152.685V152.685V152.685V152.686V237.506V237.506V237.506V237.507V237.507V237.507V237.508V237.508V237.508V237.508V237.509V237.509V237.509V237.51V237.51V237.51V237.51V237.511V237.511V237.511V237.511V237.512V237.512V237.512V237.513V237.513V237.513V237.513V237.514V237.514V237.514V237.514V237.515V237.515V237.515V237.515V237.516V237.516V237.516V237.516V237.517V237.517V237.517V237.517V237.518V237.518V237.518V237.518V237.519V237.519V237.519V237.519V237.52V237.52V237.52V237.52V237.521V237.521V237.521V237.521V237.521V237.522V237.522V237.522V237.522V237.523V237.523V237.523V237.523V237.523V237.524V237.524V237.524V237.524V237.525V237.525V237.525V237.525V237.525V237.526V237.526V237.526V237.526V237.526V237.527V237.527V237.527V237.527V237.528V237.528V237.528V237.528V237.528V237.529V237.529V237.529V237.529V237.529V237.53V237.53V237.53V237.53V237.53V237.531V237.531V237.531V237.531V237.531V237.532V237.532V237.532V237.532V237.532V237.533V237.533V237.533V237.533V237.533V237.533V237.534V237.534V237.534V237.534V237.534V237.535V237.535V237.535V237.535V237.535V237.535V237.536V237.536V237.536V237.536V237.536V237.537V237.537V237.537V237.537V237.537V237.537V237.538V237.538V237.538V237.538V237.538V237.538V237.539V237.539V237.539V237.539V237.539V237.539V237.54V237.54V237.54V237.54V237.54V237.541V237.541V237.541V237.541V237.541V237.541V237.541V237.542V237.542V237.542V237.542V237.542V237.542V237.543V237.543V237.543V237.543V237.543V237.543V237.544V237.544V237.544V237.544V237.544V237.544V237.545V237.545V237.545V237.545V237.545V237.545V237.545V237.546V237.546V237.546V237.546V237.546V237.546V237.547V237.547V237.547V237.547V237.547V237.547V237.547V237.548V237.548V237.548V237.548V237.548V237.548V237.549V237.549V237.549V237.549V237.549V237.549V237.549V237.55V237.55V237.55V237.55V237.55V237.55V237.55V237.551V237.551V237.551V237.551V237.551V237.551V237.551V237.552V237.552V237.552V237.552V237.552V237.552V237.553V237.553V237.553V237.553V237.553V237.553V237.553V237.554V237.554V237.554V237.554V237.554V237.554V237.554V237.555V237.555V237.555V237.555V237.555V237.555V237.555V237.556V237.556V237.556V237.556V237.556V237.556V237.556V237.557V237.557V237.557V237.557V237.557V237.557V237.557V237.558V237.558V237.558V237.558V237.558V237.558V237.558V237.559V237.559V237.559V237.559V237.559V237.559V237.559V237.56V237.56V237.56V237.56V237.56V237.56V237.561V237.561V237.561V237.561V237.561V237.561V237.561V237.562V237.562V237.562V237.562V237.562V237.562V237.562V237.563V237.563V237.563V237.563V237.563V237.563V237.564V237.564V237.564V237.564V237.564V237.564V237.564V237.565V237.565V237.565V237.565V237.565V237.565V237.566V237.566V237.566V237.566V237.566V237.566V237.566V237.567V237.567V237.567V237.567V237.567V237.567V237.568V237.568V237.568V237.568V237.568V237.568V237.569V237.569V237.569V237.569V237.569V237.569V237.57V237.57V237.57V237.57V237.57V237.57V237.57V237.571V237.571V237.571V237.571V237.571V237.572V237.572V237.572V237.572V237.572V237.572V237.573V237.573V237.573V237.573V237.573V237.573V237.574V237.574V237.574V237.574V237.574V237.574V237.575V237.575V237.575V237.575V237.575V237.576V237.576V237.576V237.576V237.576V237.576V237.577V237.577V237.577V237.577V237.577V237.578V152.539ZM773.401 237.605C773.451 243.052 777.957 247.508 783.404 247.508C788.85 247.508 793.307 243.052 793.406 237.605M773.401 237.605V237.506V152.686L793.406 237.605M793.406 237.605C793.406 237.159 793.802 236.813 794.247 236.813H804.646C823.066 236.813 838.069 221.809 838.069 203.39V186.752C838.069 168.333 823.066 153.329 804.646 153.329H794.247C793.802 153.329 793.406 152.983 793.406 152.537V237.605ZM771.518 152.389H771.518L771.518 152.384C771.669 145.986 777.007 140.8 783.404 140.8C789.536 140.8 794.632 145.488 795.222 151.495H804.646C824.067 151.495 839.903 167.331 839.903 186.752V203.39C839.903 222.86 824.117 238.696 804.646 238.696H795.222C794.631 244.655 789.536 249.392 783.404 249.392C776.956 249.392 771.619 244.104 771.518 237.658H771.518V237.654V237.654V237.654V237.654V237.653V237.653V237.653V237.652V237.652V237.652V237.652V237.651V237.651V237.651V237.65V237.65V237.65V237.65V237.649V237.649V237.649V237.648V237.648V237.648V237.647V237.647V237.647V237.647V237.646V237.646V237.646V237.645V237.645V237.645V237.645V237.644V237.644V237.644V237.643V237.643V237.643V237.643V237.642V237.642V237.642V237.641V237.641V237.641V237.641V237.64V237.64V237.64V237.639V237.639V237.639V237.638V237.638V237.638V237.638V237.637V237.637V237.637V237.636V237.636V237.636V237.636V237.635V237.635V237.635V237.634V237.634V237.634V237.634V237.633V237.633V237.633V237.632V237.632V237.632V237.632V237.631V237.631V237.631V237.63V237.63V237.63V237.63V237.629V237.629V237.629V237.628V237.628V237.628V237.627V237.627V237.627V237.627V237.626V237.626V237.626V237.625V237.625V237.625V237.625V237.624V237.624V237.624V237.623V237.623V237.623V237.623V237.622V237.622V237.622V237.621V237.621V237.621V237.621V237.62V237.62V237.62V237.619V237.619V237.619V237.618V237.618V237.618V237.618V237.617V237.617V237.617V237.616V237.616V237.616V237.616V237.615V237.615V237.615V237.614V237.614V237.614V237.614V237.613V237.613V237.613V237.612V237.612V237.612V237.612V237.611V237.611V237.611V237.61V237.61V237.61V237.609V237.609V237.609V237.609V237.608V237.608V237.608V237.607V237.607V237.607V237.607V237.606V237.606V237.606V237.605V237.605V237.605V237.605V237.604V237.604V237.604V237.603V237.603V237.603V237.603V237.602V237.602V237.602V237.601V237.601V237.601V237.6V237.6V237.6V237.6V237.599V237.599V237.599V237.598V237.598V237.598V237.598V237.597V237.597V237.597V237.596V237.596V237.596V237.596V237.595V237.595V237.595V237.594V237.594V237.594V237.594V237.593V237.593V237.593V237.592V237.592V237.592V237.591V237.591V237.591V237.591V237.59V237.59V237.59V237.589V237.589V237.589V237.589V237.588V237.588V237.588V237.587V237.587V237.587V237.587V237.586V237.586V237.586V237.585V237.585V237.585V237.585V237.584V237.584V237.584V237.583V237.583V237.583V237.582V237.582V237.582V237.582V237.581V237.581V237.581V237.58V237.58V237.58V237.58V237.579V237.579V237.579V237.578V237.578V237.578V237.578V237.577V237.577V237.577V237.576V237.576V237.576V237.576V237.575V237.575V237.575V237.574V237.574V237.574V237.574V237.573V237.573V237.573V237.572V237.572V237.572V237.571V237.571V237.571V237.571V237.57V237.57V237.57V237.569V237.569V237.569V237.569V237.568V237.568V237.568V237.567V237.567V237.567V237.567V237.566V237.566V237.566V237.565V237.565V237.565V237.565V237.564V237.564V237.564V237.563V237.563V237.563V237.562V237.562V237.562V237.562V237.561V237.561V237.561V237.56V237.56V237.56V237.56V237.559V237.559V237.559V237.558V237.558V237.558V237.558V237.557V237.557V237.557V237.556V237.556V237.556V237.556V237.555V237.555V237.555V237.554V237.554V237.554V237.553V237.553V237.553V237.553V237.552V237.552V237.552V237.551V237.551V237.551V237.551V237.55V237.55V237.55V237.549V237.549V237.549V237.549V237.548V237.548V237.548V237.547V237.547V237.547V237.547V237.546V237.546V237.546V237.545V237.545V237.545V237.544V237.544V237.544V237.544V237.543V237.543V237.543V237.542V237.542V237.542V237.542V237.541V237.541V237.541V237.54V237.54V237.54V237.54V237.539V237.539V237.539V237.538V237.538V237.538V237.538V237.537V237.537V237.537V237.536V237.536V237.536V237.535V237.535V237.535V237.535V237.534V237.534V237.534V237.533V237.533V237.533V237.533V237.532V237.532V237.532V237.531V237.531V237.531V237.531V237.53V237.53V237.53V237.529V237.529V237.529V237.529V237.528V237.528V237.528V237.527V237.527V237.527V237.526V237.526V237.526V237.526V237.525V237.525V237.525V237.524V237.524V237.524V237.524V237.523V237.523V237.523V237.522V237.522V237.522V237.522V237.521V237.521V237.521V237.52V237.52V237.52V237.52V237.519V237.519V237.519V237.518V237.518V237.518V237.518V237.517V237.517V237.517V237.516V237.516V237.516V237.515V237.515V237.515V237.515V237.514V237.514V237.514V237.513V237.513V237.513V237.513V237.512V237.512V237.512V237.511V237.511V237.511V237.511V237.51V237.51V237.51V237.509V237.509V237.509V237.509V237.508V237.508V237.508V237.507V237.507V237.507V237.506V237.506V237.506V152.537V152.537V152.537V152.536V152.536V152.536V152.535V152.535V152.535V152.535V152.534V152.534V152.534V152.533V152.533V152.533V152.532V152.532V152.532V152.532V152.531V152.531V152.531V152.53V152.53V152.53V152.53V152.529V152.529V152.529V152.528V152.528V152.528V152.528V152.527V152.527V152.527V152.526V152.526V152.526V152.526V152.525V152.525V152.525V152.524V152.524V152.524V152.523V152.523V152.523V152.523V152.522V152.522V152.522V152.521V152.521V152.521V152.521V152.52V152.52V152.52V152.519V152.519V152.519V152.519V152.518V152.518V152.518V152.517V152.517V152.517V152.517V152.516V152.516V152.516V152.515V152.515V152.515V152.515V152.514V152.514V152.514V152.513V152.513V152.513V152.512V152.512V152.512V152.512V152.511V152.511V152.511V152.51V152.51V152.51V152.51V152.509V152.509V152.509V152.508V152.508V152.508V152.508V152.507V152.507V152.507V152.506V152.506V152.506V152.506V152.505V152.505V152.505V152.504V152.504V152.504V152.503V152.503V152.503V152.503V152.502V152.502V152.502V152.501V152.501V152.501V152.501V152.5V152.5V152.5V152.499V152.499V152.499V152.499V152.498V152.498V152.498V152.497V152.497V152.497V152.497V152.496V152.496V152.496V152.495V152.495V152.495V152.494V152.494V152.494V152.494V152.493V152.493V152.493V152.492V152.492V152.492V152.492V152.491V152.491V152.491V152.49V152.49V152.49V152.49V152.489V152.489V152.489V152.488V152.488V152.488V152.488V152.487V152.487V152.487V152.486V152.486V152.486V152.485V152.485V152.485V152.485V152.484V152.484V152.484V152.483V152.483V152.483V152.483V152.482V152.482V152.482V152.481V152.481V152.481V152.481V152.48V152.48V152.48V152.479V152.479V152.479V152.479V152.478V152.478V152.478V152.477V152.477V152.477V152.476V152.476V152.476V152.476V152.475V152.475V152.475V152.474V152.474V152.474V152.474V152.473V152.473V152.473V152.472V152.472V152.472V152.472V152.471V152.471V152.471V152.47V152.47V152.47V152.47V152.469V152.469V152.469V152.468V152.468V152.468V152.468V152.467V152.467V152.467V152.466V152.466V152.466V152.465V152.465V152.465V152.465V152.464V152.464V152.464V152.463V152.463V152.463V152.463V152.462V152.462V152.462V152.461V152.461V152.461V152.461V152.46V152.46V152.46V152.459V152.459V152.459V152.459V152.458V152.458V152.458V152.457V152.457V152.457V152.456V152.456V152.456V152.456V152.455V152.455V152.455V152.454V152.454V152.454V152.454V152.453V152.453V152.453V152.452V152.452V152.452V152.452V152.451V152.451V152.451V152.45V152.45V152.45V152.45V152.449V152.449V152.449V152.448V152.448V152.448V152.447V152.447V152.447V152.447V152.446V152.446V152.446V152.445V152.445V152.445V152.445V152.444V152.444V152.444V152.443V152.443V152.443V152.443V152.442V152.442V152.442V152.441V152.441V152.441V152.441V152.44V152.44V152.44V152.439V152.439V152.439V152.438V152.438V152.438V152.438V152.437V152.437V152.437V152.436V152.436V152.436V152.436V152.435V152.435V152.435V152.434V152.434V152.434V152.434V152.433V152.433V152.433V152.432V152.432V152.432V152.432V152.431V152.431V152.431V152.43V152.43V152.43V152.429V152.429V152.429V152.429V152.428V152.428V152.428V152.427V152.427V152.427V152.427V152.426V152.426V152.426V152.425V152.425V152.425V152.425V152.424V152.424V152.424V152.423V152.423V152.423V152.423V152.422V152.422V152.422V152.421V152.421V152.421V152.421V152.42V152.42V152.42V152.419V152.419V152.419V152.418V152.418V152.418V152.418V152.417V152.417V152.417V152.416V152.416V152.416V152.416V152.415V152.415V152.415V152.414V152.414V152.414V152.414V152.413V152.413V152.413V152.412V152.412V152.412V152.412V152.411V152.411V152.411V152.41V152.41V152.41V152.409V152.409V152.409V152.409V152.408V152.408V152.408V152.407V152.407V152.407V152.407V152.406V152.406V152.406V152.405V152.405V152.405V152.405V152.404V152.404V152.404V152.403V152.403V152.403V152.403V152.402V152.402V152.402V152.401V152.401V152.401V152.4V152.4V152.4V152.4V152.399V152.399V152.399V152.398V152.398V152.398V152.398V152.397V152.397V152.397V152.396V152.396V152.396V152.396V152.395V152.395V152.395V152.394V152.394V152.394V152.394V152.393V152.393V152.393V152.392V152.392V152.392V152.391V152.391V152.391V152.391V152.39V152.39V152.39V152.389V152.389V152.389V152.389Z" fill="#3265B1" stroke="#3265B1" stroke-width="0.4"/>
<path d="M811.182 182.543C814.202 182.543 816.629 180.117 816.629 177.096C816.629 174.076 814.202 171.65 811.182 171.65C808.161 171.65 805.735 174.076 805.735 177.096C805.735 180.067 808.161 182.543 811.182 182.543Z" fill="#A9D6F7"/>
<path d="M817.421 177.097C817.421 173.631 814.599 170.808 811.133 170.808C807.667 170.808 804.844 173.631 804.844 177.097C804.844 180.563 807.667 183.385 811.133 183.385C814.599 183.336 817.421 180.563 817.421 177.097ZM806.528 177.097C806.528 174.571 808.607 172.492 811.133 172.492C813.658 172.492 815.738 174.571 815.738 177.097C815.738 179.622 813.658 181.702 811.133 181.702C808.607 181.702 806.528 179.622 806.528 177.097Z" fill="#3265B1"/>
<path d="M816.629 213.094C816.629 216.103 814.19 218.541 811.182 218.541C808.174 218.541 805.735 216.103 805.735 213.094C805.735 210.086 808.174 207.648 811.182 207.648C814.19 207.648 816.629 210.086 816.629 213.094Z" fill="#A9D6F7"/>
<path d="M817.421 213.095C817.421 209.629 814.599 206.806 811.133 206.806C807.667 206.806 804.844 209.629 804.844 213.095C804.844 216.561 807.667 219.383 811.133 219.383C814.599 219.334 817.421 216.511 817.421 213.095ZM806.528 213.095C806.528 210.57 808.608 208.49 811.133 208.49C813.658 208.49 815.738 210.57 815.738 213.095C815.738 215.62 813.658 217.7 811.133 217.7C808.608 217.7 806.528 215.62 806.528 213.095Z" fill="#3265B1"/>
<path d="M739.938 172C737.763 172 736 173.763 736 175.938C736 178.113 737.763 179.876 739.938 179.876H759.851C760.532 179.876 761.535 179.612 762.349 178.975C763.125 178.368 763.745 177.414 763.745 175.931C763.745 174.444 763.129 173.496 762.36 172.894C761.552 172.263 760.55 172 759.851 172H739.938Z" fill="white" stroke="#3265B1" stroke-width="2"/>
<path d="M740.899 201.291C738.724 201.291 736.961 203.054 736.961 205.229C736.961 207.404 738.724 209.167 740.899 209.167H760.812C761.493 209.167 762.496 208.902 763.31 208.266C764.085 207.659 764.706 206.705 764.706 205.222C764.706 203.735 764.09 202.787 763.32 202.185C762.513 201.554 761.511 201.291 760.812 201.291H740.899Z" fill="white" stroke="#3265B1" stroke-width="2"/>
<path d="M166.253 198.122H602V179.191H182.625H145.894C145.341 179.191 144.894 179.639 144.894 180.191V360.476C144.894 362.132 143.551 363.476 141.894 363.476H-19V381.191L162.253 381.191C162.806 381.191 163.253 380.744 163.253 380.191V372.941V201.122C163.253 199.465 164.596 198.122 166.253 198.122Z" stroke="#3265B1" stroke-width="2"/>
<path d="M593.294 179.191V198.191H602.294V179.191H593.294Z" fill="#D5E3F3" stroke="#3265B1" stroke-width="2"/>
<path d="M588 188.191H154.5V371.691H-8.5" stroke="#3265B1" stroke-dasharray="8 8"/>
<path d="M657.596 133.842C663.538 133.842 668.341 138.596 668.44 144.538V144.686V229.506V229.655C668.341 235.597 663.538 240.35 657.596 240.35C651.654 240.35 646.851 235.597 646.752 229.655H636.353C617.439 229.655 602.138 214.305 602.138 195.44V178.803C602.138 159.888 617.488 144.587 636.353 144.587H646.752C646.801 138.645 651.654 133.842 657.596 133.842Z" fill="white"/>
<path d="M667.399 229.652C667.301 234.991 662.931 239.357 657.596 239.357C652.259 239.357 647.843 235.039 647.794 229.653C647.794 229.082 647.292 228.662 646.753 228.662H636.354C618.045 228.662 603.131 213.748 603.131 195.439V178.802C603.131 160.492 618.045 145.579 636.354 145.579H646.753C647.292 145.579 647.793 145.159 647.794 144.588C647.892 139.249 652.262 134.883 657.596 134.883C662.933 134.883 667.35 139.251 667.399 144.587C667.399 144.588 667.399 144.588 667.399 144.588L667.599 144.586M667.399 229.652L667.599 144.586M667.399 229.652V229.652V229.652V229.652V229.651V229.651V229.651V229.651V229.65V229.65V229.65V229.649V229.649V229.649V229.648V229.648V229.648V229.648V229.647V229.647V229.647V229.646V229.646V229.646V229.646V229.645V229.645V229.645V229.644V229.644V229.644V229.644V229.643V229.643V229.643V229.642V229.642V229.642V229.642V229.641V229.641V229.641V229.64V229.64V229.64V229.639V229.639V229.639V229.639V229.638V229.638V229.638V229.637V229.637V229.637V229.637V229.636V229.636V229.636V229.635V229.635V229.635V229.635V229.634V229.634V229.634V229.633V229.633V229.633V229.633V229.632V229.632V229.632V229.631V229.631V229.631V229.63V229.63V229.63V229.63V229.629V229.629V229.629V229.628V229.628V229.628V229.628V229.627V229.627V229.627V229.626V229.626V229.626V229.626V229.625V229.625V229.625V229.624V229.624V229.624V229.624V229.623V229.623V229.623V229.622V229.622V229.622V229.621V229.621V229.621V229.621V229.62V229.62V229.62V229.619V229.619V229.619V229.619V229.618V229.618V229.618V229.617V229.617V229.617V229.617V229.616V229.616V229.616V229.615V229.615V229.615V229.615V229.614V229.614V229.614V229.613V229.613V229.613V229.612V229.612V229.612V229.612V229.611V229.611V229.611V229.61V229.61V229.61V229.61V229.609V229.609V229.609V229.608V229.608V229.608V229.608V229.607V229.607V229.607V229.606V229.606V229.606V229.606V229.605V229.605V229.605V229.604V229.604V229.604V229.603V229.603V229.603V229.603V229.602V229.602V229.602V229.601V229.601V229.601V229.601V229.6V229.6V229.6V229.599V229.599V229.599V229.599V229.598V229.598V229.598V229.597V229.597V229.597V229.597V229.596V229.596V229.596V229.595V229.595V229.595V229.595V229.594V229.594V229.594V229.593V229.593V229.593V229.592V229.592V229.592V229.592V229.591V229.591V229.591V229.59V229.59V229.59V229.59V229.589V229.589V229.589V229.588V229.588V229.588V229.588V229.587V229.587V229.587V229.586V229.586V229.586V229.586V229.585V229.585V229.585V229.584V229.584V229.584V229.583V229.583V229.583V229.583V229.582V229.582V229.582V229.581V229.581V229.581V229.581V229.58V229.58V229.58V229.579V229.579V229.579V229.579V229.578V229.578V229.578V229.577V229.577V229.577V229.577V229.576V229.576V229.576V229.575V229.575V229.575V229.574V229.574V229.574V229.574V229.573V229.573V229.573V229.572V229.572V229.572V229.572V229.571V229.571V229.571V229.57V229.57V229.57V229.57V229.569V229.569V229.569V229.568V229.568V229.568V229.568V229.567V229.567V229.567V229.566V229.566V229.566V229.565V229.565V229.565V229.565V229.564V229.564V229.564V229.563V229.563V229.563V229.563V229.562V229.562V229.562V229.561V229.561V229.561V229.561V229.56V229.56V229.56V229.559V229.559V229.559V229.559V229.558V229.558V229.558V229.557V229.557V229.557V229.556V229.556V229.556V229.556V229.555V229.555V229.555V229.554V229.554V229.554V229.554V229.553V229.553V229.553V229.552V229.552V229.552V229.552V229.551V229.551V229.551V229.55V229.55V229.55V229.55V229.549V229.549V229.549V229.548V229.548V229.548V229.548V229.547V229.547V229.547V229.546V229.546V229.546V229.545V229.545V229.545V229.545V229.544V229.544V229.544V229.543V229.543V229.543V229.543V229.542V229.542V229.542V229.541V229.541V229.541V229.541V229.54V229.54V229.54V229.539V229.539V229.539V229.539V229.538V229.538V229.538V229.537V229.537V229.537V229.536V229.536V229.536V229.536V229.535V229.535V229.535V229.534V229.534V229.534V229.534V229.533V229.533V229.533V229.532V229.532V229.532V229.532V229.531V229.531V229.531V229.53V229.53V229.53V229.53V229.529V229.529V229.529V229.528V229.528V229.528V229.527V229.527V229.527V229.527V229.526V229.526V229.526V229.525V229.525V229.525V229.525V229.524V229.524V229.524V229.523V229.523V229.523V229.523V229.522V229.522V229.522V229.521V229.521V229.521V229.521V229.52V229.52V229.52V229.519V229.519V229.519V229.518V229.518V229.518V229.518V229.517V229.517V229.517V229.516V229.516V229.516V229.516V229.515V229.515V229.515V229.514V229.514V229.514V229.514V229.513V229.513V229.513V229.512V229.512V229.512V229.512V229.511V229.511V229.511V229.51V229.51V229.51V229.509V229.509V229.509V229.509V229.508V229.508V229.508V229.507V229.507V229.507V229.507V229.506V229.506V229.506V144.686V144.685V144.685V144.685V144.684V144.684V144.684V144.684V144.683V144.683V144.683V144.682V144.682V144.682V144.682V144.681V144.681V144.681V144.68V144.68V144.68V144.68V144.679V144.679V144.679V144.679V144.678V144.678V144.678V144.678V144.677V144.677V144.677V144.677V144.676V144.676V144.676V144.676V144.675V144.675V144.675V144.675V144.674V144.674V144.674V144.674V144.673V144.673V144.673V144.673V144.672V144.672V144.672V144.672V144.671V144.671V144.671V144.671V144.67V144.67V144.67V144.67V144.67V144.669V144.669V144.669V144.669V144.668V144.668V144.668V144.668V144.668V144.667V144.667V144.667V144.667V144.666V144.666V144.666V144.666V144.666V144.665V144.665V144.665V144.665V144.664V144.664V144.664V144.664V144.664V144.663V144.663V144.663V144.663V144.663V144.662V144.662V144.662V144.662V144.662V144.661V144.661V144.661V144.661V144.661V144.66V144.66V144.66V144.66V144.66V144.659V144.659V144.659V144.659V144.659V144.659V144.658V144.658V144.658V144.658V144.658V144.657V144.657V144.657V144.657V144.657V144.656V144.656V144.656V144.656V144.656V144.656V144.655V144.655V144.655V144.655V144.655V144.654V144.654V144.654V144.654V144.654V144.654V144.653V144.653V144.653V144.653V144.653V144.653V144.652V144.652V144.652V144.652V144.652V144.652V144.651V144.651V144.651V144.651V144.651V144.651V144.65V144.65V144.65V144.65V144.65V144.65V144.649V144.649V144.649V144.649V144.649V144.649V144.648V144.648V144.648V144.648V144.648V144.648V144.647V144.647V144.647V144.647V144.647V144.647V144.647V144.646V144.646V144.646V144.646V144.646V144.646V144.645V144.645V144.645V144.645V144.645V144.645V144.645V144.644V144.644V144.644V144.644V144.644V144.644V144.643V144.643V144.643V144.643V144.643V144.643V144.643V144.642V144.642V144.642V144.642V144.642V144.642V144.642V144.641V144.641V144.641V144.641V144.641V144.641V144.641V144.64V144.64V144.64V144.64V144.64V144.64V144.639V144.639V144.639V144.639V144.639V144.639V144.639V144.638V144.638V144.638V144.638V144.638V144.638V144.638V144.637V144.637V144.637V144.637V144.637V144.637V144.637V144.636V144.636V144.636V144.636V144.636V144.636V144.636V144.635V144.635V144.635V144.635V144.635V144.635V144.635V144.634V144.634V144.634V144.634V144.634V144.634V144.634V144.633V144.633V144.633V144.633V144.633V144.633V144.632V144.632V144.632V144.632V144.632V144.632V144.632V144.631V144.631V144.631V144.631V144.631V144.631V144.631V144.63V144.63V144.63V144.63V144.63V144.63V144.63V144.629V144.629V144.629V144.629V144.629V144.629V144.628V144.628V144.628V144.628V144.628V144.628V144.628V144.627V144.627V144.627V144.627V144.627V144.627V144.627V144.626V144.626V144.626V144.626V144.626V144.626V144.625V144.625V144.625V144.625V144.625V144.625V144.624V144.624V144.624V144.624V144.624V144.624V144.624V144.623V144.623V144.623V144.623V144.623V144.623V144.622V144.622V144.622V144.622V144.622V144.622V144.621V144.621V144.621V144.621V144.621V144.621V144.62V144.62V144.62V144.62V144.62V144.62V144.619V144.619V144.619V144.619V144.619V144.619V144.618V144.618V144.618V144.618V144.618V144.617V144.617V144.617V144.617V144.617V144.617V144.616V144.616V144.616V144.616V144.616V144.616V144.615V144.615V144.615V144.615V144.615V144.614V144.614V144.614V144.614V229.652ZM667.599 144.586C667.549 139.14 663.043 134.683 657.596 134.683C652.15 134.683 647.693 139.14 647.594 144.586M667.599 144.586V144.686V229.506L647.594 144.586M647.594 144.586C647.594 145.032 647.198 145.379 646.753 145.379H636.354C617.934 145.379 602.931 160.382 602.931 178.802V195.439C602.931 213.859 617.934 228.862 636.354 228.862H646.753C647.198 228.862 647.594 229.209 647.594 229.654V144.586ZM669.482 229.803H669.482L669.482 229.808C669.331 236.205 663.993 241.391 657.596 241.391C651.464 241.391 646.368 236.703 645.778 230.696H636.354C616.933 230.696 601.097 214.861 601.097 195.439V178.802C601.097 159.331 616.883 143.495 636.354 143.495H645.778C646.369 137.537 651.464 132.8 657.596 132.8C664.044 132.8 669.381 138.087 669.482 144.534H669.482V144.537V144.537V144.538V144.538V144.538V144.538V144.539V144.539V144.539V144.54V144.54V144.54V144.54V144.541V144.541V144.541V144.542V144.542V144.542V144.542V144.543V144.543V144.543V144.544V144.544V144.544V144.545V144.545V144.545V144.545V144.546V144.546V144.546V144.547V144.547V144.547V144.547V144.548V144.548V144.548V144.549V144.549V144.549V144.549V144.55V144.55V144.55V144.551V144.551V144.551V144.551V144.552V144.552V144.552V144.553V144.553V144.553V144.553V144.554V144.554V144.554V144.555V144.555V144.555V144.556V144.556V144.556V144.556V144.557V144.557V144.557V144.558V144.558V144.558V144.558V144.559V144.559V144.559V144.56V144.56V144.56V144.56V144.561V144.561V144.561V144.562V144.562V144.562V144.562V144.563V144.563V144.563V144.564V144.564V144.564V144.565V144.565V144.565V144.565V144.566V144.566V144.566V144.567V144.567V144.567V144.567V144.568V144.568V144.568V144.569V144.569V144.569V144.569V144.57V144.57V144.57V144.571V144.571V144.571V144.571V144.572V144.572V144.572V144.573V144.573V144.573V144.574V144.574V144.574V144.574V144.575V144.575V144.575V144.576V144.576V144.576V144.576V144.577V144.577V144.577V144.578V144.578V144.578V144.578V144.579V144.579V144.579V144.58V144.58V144.58V144.58V144.581V144.581V144.581V144.582V144.582V144.582V144.583V144.583V144.583V144.583V144.584V144.584V144.584V144.585V144.585V144.585V144.585V144.586V144.586V144.586V144.587V144.587V144.587V144.587V144.588V144.588V144.588V144.589V144.589V144.589V144.589V144.59V144.59V144.59V144.591V144.591V144.591V144.591V144.592V144.592V144.592V144.593V144.593V144.593V144.594V144.594V144.594V144.594V144.595V144.595V144.595V144.596V144.596V144.596V144.596V144.597V144.597V144.597V144.598V144.598V144.598V144.598V144.599V144.599V144.599V144.6V144.6V144.6V144.6V144.601V144.601V144.601V144.602V144.602V144.602V144.603V144.603V144.603V144.603V144.604V144.604V144.604V144.605V144.605V144.605V144.605V144.606V144.606V144.606V144.607V144.607V144.607V144.607V144.608V144.608V144.608V144.609V144.609V144.609V144.609V144.61V144.61V144.61V144.611V144.611V144.611V144.612V144.612V144.612V144.612V144.613V144.613V144.613V144.614V144.614V144.614V144.614V144.615V144.615V144.615V144.616V144.616V144.616V144.616V144.617V144.617V144.617V144.618V144.618V144.618V144.618V144.619V144.619V144.619V144.62V144.62V144.62V144.621V144.621V144.621V144.621V144.622V144.622V144.622V144.623V144.623V144.623V144.623V144.624V144.624V144.624V144.625V144.625V144.625V144.625V144.626V144.626V144.626V144.627V144.627V144.627V144.627V144.628V144.628V144.628V144.629V144.629V144.629V144.63V144.63V144.63V144.63V144.631V144.631V144.631V144.632V144.632V144.632V144.632V144.633V144.633V144.633V144.634V144.634V144.634V144.634V144.635V144.635V144.635V144.636V144.636V144.636V144.636V144.637V144.637V144.637V144.638V144.638V144.638V144.639V144.639V144.639V144.639V144.64V144.64V144.64V144.641V144.641V144.641V144.641V144.642V144.642V144.642V144.643V144.643V144.643V144.643V144.644V144.644V144.644V144.645V144.645V144.645V144.645V144.646V144.646V144.646V144.647V144.647V144.647V144.647V144.648V144.648V144.648V144.649V144.649V144.649V144.65V144.65V144.65V144.65V144.651V144.651V144.651V144.652V144.652V144.652V144.652V144.653V144.653V144.653V144.654V144.654V144.654V144.654V144.655V144.655V144.655V144.656V144.656V144.656V144.656V144.657V144.657V144.657V144.658V144.658V144.658V144.659V144.659V144.659V144.659V144.66V144.66V144.66V144.661V144.661V144.661V144.661V144.662V144.662V144.662V144.663V144.663V144.663V144.663V144.664V144.664V144.664V144.665V144.665V144.665V144.665V144.666V144.666V144.666V144.667V144.667V144.667V144.668V144.668V144.668V144.668V144.669V144.669V144.669V144.67V144.67V144.67V144.67V144.671V144.671V144.671V144.672V144.672V144.672V144.672V144.673V144.673V144.673V144.674V144.674V144.674V144.674V144.675V144.675V144.675V144.676V144.676V144.676V144.677V144.677V144.677V144.677V144.678V144.678V144.678V144.679V144.679V144.679V144.679V144.68V144.68V144.68V144.681V144.681V144.681V144.681V144.682V144.682V144.682V144.683V144.683V144.683V144.683V144.684V144.684V144.684V144.685V144.685V144.685V144.686V229.654V229.655V229.655V229.655V229.655V229.656V229.656V229.656V229.657V229.657V229.657V229.657V229.658V229.658V229.658V229.659V229.659V229.659V229.659V229.66V229.66V229.66V229.661V229.661V229.661V229.662V229.662V229.662V229.662V229.663V229.663V229.663V229.664V229.664V229.664V229.664V229.665V229.665V229.665V229.666V229.666V229.666V229.666V229.667V229.667V229.667V229.668V229.668V229.668V229.668V229.669V229.669V229.669V229.67V229.67V229.67V229.671V229.671V229.671V229.671V229.672V229.672V229.672V229.673V229.673V229.673V229.673V229.674V229.674V229.674V229.675V229.675V229.675V229.675V229.676V229.676V229.676V229.677V229.677V229.677V229.677V229.678V229.678V229.678V229.679V229.679V229.679V229.68V229.68V229.68V229.68V229.681V229.681V229.681V229.682V229.682V229.682V229.682V229.683V229.683V229.683V229.684V229.684V229.684V229.684V229.685V229.685V229.685V229.686V229.686V229.686V229.686V229.687V229.687V229.687V229.688V229.688V229.688V229.689V229.689V229.689V229.689V229.69V229.69V229.69V229.691V229.691V229.691V229.691V229.692V229.692V229.692V229.693V229.693V229.693V229.693V229.694V229.694V229.694V229.695V229.695V229.695V229.695V229.696V229.696V229.696V229.697V229.697V229.697V229.698V229.698V229.698V229.698V229.699V229.699V229.699V229.7V229.7V229.7V229.7V229.701V229.701V229.701V229.702V229.702V229.702V229.702V229.703V229.703V229.703V229.704V229.704V229.704V229.704V229.705V229.705V229.705V229.706V229.706V229.706V229.706V229.707V229.707V229.707V229.708V229.708V229.708V229.709V229.709V229.709V229.709V229.71V229.71V229.71V229.711V229.711V229.711V229.711V229.712V229.712V229.712V229.713V229.713V229.713V229.713V229.714V229.714V229.714V229.715V229.715V229.715V229.715V229.716V229.716V229.716V229.717V229.717V229.717V229.718V229.718V229.718V229.718V229.719V229.719V229.719V229.72V229.72V229.72V229.72V229.721V229.721V229.721V229.722V229.722V229.722V229.722V229.723V229.723V229.723V229.724V229.724V229.724V229.724V229.725V229.725V229.725V229.726V229.726V229.726V229.727V229.727V229.727V229.727V229.728V229.728V229.728V229.729V229.729V229.729V229.729V229.73V229.73V229.73V229.731V229.731V229.731V229.731V229.732V229.732V229.732V229.733V229.733V229.733V229.733V229.734V229.734V229.734V229.735V229.735V229.735V229.736V229.736V229.736V229.736V229.737V229.737V229.737V229.738V229.738V229.738V229.738V229.739V229.739V229.739V229.74V229.74V229.74V229.74V229.741V229.741V229.741V229.742V229.742V229.742V229.742V229.743V229.743V229.743V229.744V229.744V229.744V229.745V229.745V229.745V229.745V229.746V229.746V229.746V229.747V229.747V229.747V229.747V229.748V229.748V229.748V229.749V229.749V229.749V229.749V229.75V229.75V229.75V229.751V229.751V229.751V229.751V229.752V229.752V229.752V229.753V229.753V229.753V229.753V229.754V229.754V229.754V229.755V229.755V229.755V229.756V229.756V229.756V229.756V229.757V229.757V229.757V229.758V229.758V229.758V229.758V229.759V229.759V229.759V229.76V229.76V229.76V229.76V229.761V229.761V229.761V229.762V229.762V229.762V229.762V229.763V229.763V229.763V229.764V229.764V229.764V229.765V229.765V229.765V229.765V229.766V229.766V229.766V229.767V229.767V229.767V229.767V229.768V229.768V229.768V229.769V229.769V229.769V229.769V229.77V229.77V229.77V229.771V229.771V229.771V229.771V229.772V229.772V229.772V229.773V229.773V229.773V229.774V229.774V229.774V229.774V229.775V229.775V229.775V229.776V229.776V229.776V229.776V229.777V229.777V229.777V229.778V229.778V229.778V229.778V229.779V229.779V229.779V229.78V229.78V229.78V229.78V229.781V229.781V229.781V229.782V229.782V229.782V229.783V229.783V229.783V229.783V229.784V229.784V229.784V229.785V229.785V229.785V229.785V229.786V229.786V229.786V229.787V229.787V229.787V229.787V229.788V229.788V229.788V229.789V229.789V229.789V229.789V229.79V229.79V229.79V229.791V229.791V229.791V229.792V229.792V229.792V229.792V229.793V229.793V229.793V229.794V229.794V229.794V229.794V229.795V229.795V229.795V229.796V229.796V229.796V229.796V229.797V229.797V229.797V229.798V229.798V229.798V229.798V229.799V229.799V229.799V229.8V229.8V229.8V229.8V229.801V229.801V229.801V229.802V229.802V229.802V229.803V229.803Z" fill="#3265B1" stroke="#3265B1" stroke-width="0.4"/>
<path d="M629.818 199.648C626.798 199.648 624.371 202.075 624.371 205.095C624.371 208.115 626.798 210.542 629.818 210.542C632.839 210.542 635.265 208.115 635.265 205.095C635.265 202.124 632.839 199.648 629.818 199.648Z" fill="#A9D6F7"/>
<path d="M623.579 205.095C623.579 208.561 626.401 211.383 629.867 211.383C633.333 211.383 636.156 208.561 636.156 205.095C636.156 201.629 633.333 198.806 629.867 198.806C626.401 198.856 623.579 201.629 623.579 205.095ZM634.472 205.095C634.472 207.62 632.393 209.7 629.867 209.7C627.342 209.7 625.262 207.62 625.262 205.095C625.262 202.569 627.342 200.49 629.867 200.49C632.393 200.49 634.472 202.569 634.472 205.095Z" fill="#3265B1"/>
<path d="M624.371 169.097C624.371 166.089 626.81 163.65 629.818 163.65C632.826 163.65 635.265 166.089 635.265 169.097C635.265 172.105 632.826 174.544 629.818 174.544C626.81 174.544 624.371 172.105 624.371 169.097Z" fill="#A9D6F7"/>
<path d="M623.579 169.097C623.579 172.563 626.401 175.385 629.867 175.385C633.333 175.385 636.156 172.563 636.156 169.097C636.156 165.63 633.333 162.808 629.867 162.808C626.401 162.858 623.579 165.68 623.579 169.097ZM634.472 169.097C634.472 171.622 632.392 173.702 629.867 173.702C627.342 173.702 625.262 171.622 625.262 169.097C625.262 166.571 627.342 164.492 629.867 164.492C632.392 164.492 634.472 166.571 634.472 169.097Z" fill="#3265B1"/>
<path d="M713.874 260.103C714.073 260.105 714.205 260.04 714.339 259.909L719.672 254.665C719.939 254.403 719.942 254.006 719.681 253.739C719.419 253.472 719.022 253.468 718.756 253.731L714.155 258.253L710.859 250.219C710.794 250.02 710.597 249.886 710.4 249.818C710.202 249.75 709.937 249.814 709.804 249.945L705.673 253.744L701.396 244.444C701.332 244.245 701.135 244.111 700.871 244.043C700.673 244.041 700.408 244.105 700.275 244.236L696.269 248.83C696.002 249.092 696.064 249.556 696.327 249.757C696.589 250.024 697.052 249.962 697.252 249.699L700.59 245.892L704.801 255.126C704.866 255.325 705.063 255.459 705.26 255.527C705.458 255.595 705.657 255.53 705.857 255.334L709.922 251.534L713.218 259.634C713.282 259.833 713.479 259.967 713.677 260.035C713.742 260.102 713.808 260.102 713.874 260.103Z" fill="#3265B1"/>
<path d="M711.865 190.321C712.024 190.202 712.09 190.069 712.116 189.884L713.169 182.479C713.221 182.109 712.983 181.792 712.613 181.739C712.243 181.685 711.926 181.923 711.873 182.294L710.965 188.68L703.467 184.3C703.295 184.181 703.057 184.194 702.859 184.26C702.66 184.326 702.489 184.538 702.462 184.723L701.488 190.25L692.442 185.459C692.27 185.34 692.032 185.353 691.781 185.458C691.623 185.577 691.451 185.789 691.425 185.974L691.032 192.057C690.98 192.427 691.31 192.758 691.641 192.758C692.011 192.811 692.341 192.481 692.341 192.15L692.681 187.099L701.634 191.877C701.806 191.996 702.044 191.983 702.243 191.916C702.441 191.85 702.56 191.679 702.599 191.401L703.521 185.913L711.059 190.347C711.231 190.466 711.469 190.453 711.667 190.387C711.76 190.4 711.813 190.36 711.865 190.321Z" fill="#3265B1"/>
<path d="M716.953 126.88C717.018 126.693 717 126.546 716.918 126.378L713.67 119.641C713.508 119.304 713.133 119.173 712.796 119.335C712.459 119.497 712.328 119.871 712.491 120.208L715.292 126.019L706.624 126.554C706.415 126.551 706.225 126.694 706.097 126.86C705.969 127.025 705.944 127.296 706.025 127.464L708.293 132.598L698.111 133.654C697.902 133.651 697.712 133.794 697.562 134.022C697.497 134.209 697.472 134.48 697.553 134.649L700.613 139.92C700.776 140.257 701.234 140.348 701.509 140.164C701.846 140.002 701.937 139.544 701.752 139.269L699.223 134.883L709.32 133.868C709.529 133.871 709.72 133.728 709.847 133.563C709.975 133.398 709.978 133.189 709.857 132.936L707.567 127.864L716.298 127.351C716.507 127.354 716.697 127.21 716.825 127.045C716.909 127.005 716.931 126.942 716.953 126.88Z" fill="#3265B1"/>
</svg>
