<svg width="220" height="28" viewBox="0 0 220 28" fill="none" xmlns="http://www.w3.org/2000/svg">
<path d="M11.2971 7.56782V11.847H0.470713V7.56782H11.2971ZM2.56753 3.63094H8.47284V18.7152C8.47284 18.9434 8.51207 19.136 8.59052 19.2929C8.66897 19.4426 8.79022 19.5567 8.95425 19.6352C9.11829 19.7065 9.32869 19.7422 9.58544 19.7422C9.76374 19.7422 9.97057 19.7208 10.2059 19.678C10.4484 19.6352 10.6267 19.5995 10.7408 19.571L11.5967 23.7219C11.3328 23.8003 10.9548 23.8966 10.4627 24.0107C9.9777 24.1248 9.40001 24.1997 8.7296 24.2354C7.37451 24.3067 6.23695 24.1676 5.31692 23.8181C4.39689 23.4615 3.70509 22.9017 3.2415 22.1385C2.77792 21.3754 2.55326 20.4197 2.56753 19.2715V3.63094ZM13.7069 24V7.56782H19.441V10.6916H19.6122C19.9117 9.53626 20.386 8.69111 21.035 8.15621C21.6912 7.62131 22.4578 7.35386 23.3351 7.35386C23.5918 7.35386 23.845 7.37526 24.0946 7.41805C24.3514 7.45371 24.5975 7.5072 24.8328 7.57852V12.6173C24.5404 12.5174 24.1802 12.4426 23.7523 12.3926C23.3244 12.3427 22.9571 12.3177 22.6504 12.3177C22.0727 12.3177 21.5521 12.4497 21.0885 12.7136C20.6321 12.9703 20.2719 13.3341 20.008 13.8048C19.7441 14.2684 19.6122 14.814 19.6122 15.4416V24H13.7069ZM30.583 24.2568C29.5346 24.2568 28.6074 24.0856 27.8015 23.7432C27.0027 23.3938 26.3751 22.866 25.9187 22.1599C25.4622 21.4539 25.234 20.5552 25.234 19.464C25.234 18.5654 25.3873 17.7987 25.694 17.164C26.0007 16.5221 26.4286 15.9979 26.9778 15.5913C27.5269 15.1848 28.1652 14.8746 28.8927 14.6606C29.6273 14.4467 30.419 14.3076 31.2677 14.2434C32.1877 14.1721 32.9259 14.0865 33.4822 13.9866C34.0456 13.8797 34.4521 13.7335 34.7017 13.548C34.9514 13.3555 35.0762 13.1023 35.0762 12.7885V12.7457C35.0762 12.3177 34.9121 11.9897 34.5841 11.7614C34.256 11.5332 33.8352 11.4191 33.3217 11.4191C32.7583 11.4191 32.2983 11.5439 31.9417 11.7935C31.5922 12.036 31.3818 12.4105 31.3105 12.9168H25.8759C25.9472 11.9184 26.2646 10.9983 26.828 10.1567C27.3986 9.30803 28.2294 8.63049 29.3206 8.12412C30.4118 7.61061 31.7741 7.35386 33.4073 7.35386C34.5841 7.35386 35.6396 7.49293 36.5739 7.77108C37.5082 8.0421 38.3034 8.42366 38.9596 8.91577C39.6157 9.40075 40.115 9.97131 40.4573 10.6275C40.8068 11.2765 40.9815 11.9825 40.9815 12.7457V24H35.4613V21.6892H35.3329C35.0049 22.3026 34.6055 22.7983 34.1348 23.1763C33.6712 23.5542 33.1398 23.8288 32.5407 24C31.9488 24.1712 31.2962 24.2568 30.583 24.2568ZM32.5087 20.5338C32.958 20.5338 33.3788 20.4411 33.771 20.2557C34.1704 20.0703 34.4949 19.8028 34.7445 19.4533C34.9942 19.1039 35.119 18.6795 35.119 18.1803V16.8109C34.9621 16.8751 34.7945 16.9357 34.6162 16.9928C34.445 17.0498 34.2596 17.1033 34.0599 17.1533C33.8673 17.2032 33.6605 17.2495 33.4394 17.2923C33.2254 17.3351 33.0008 17.3744 32.7654 17.41C32.309 17.4813 31.9345 17.599 31.6421 17.763C31.3568 17.92 31.1429 18.1161 31.0002 18.3514C30.8647 18.5797 30.797 18.8364 30.797 19.1217C30.797 19.5781 30.9574 19.9276 31.2784 20.1701C31.5993 20.4126 32.0094 20.5338 32.5087 20.5338ZM49.7084 14.7569V24H43.8031V7.56782H49.4089V10.6916H49.58C49.9366 9.65037 50.5643 8.83375 51.4629 8.2418C52.3687 7.64984 53.4242 7.35386 54.6295 7.35386C55.792 7.35386 56.8012 7.62131 57.6571 8.15621C58.52 8.68398 59.1869 9.41145 59.6576 10.3386C60.1354 11.2658 60.3708 12.3249 60.3637 13.5159V24H54.4583V14.7569C54.4655 13.9438 54.2586 13.3055 53.8379 12.842C53.4242 12.3784 52.8465 12.1466 52.1048 12.1466C51.6198 12.1466 51.1954 12.2536 50.8317 12.4675C50.4751 12.6743 50.2005 12.9739 50.008 13.3662C49.8154 13.7513 49.7155 14.2149 49.7084 14.7569ZM78.2989 12.9168H72.8643C72.8358 12.5816 72.7181 12.2928 72.5113 12.0503C72.3044 11.8078 72.037 11.6224 71.7089 11.494C71.388 11.3585 71.0314 11.2907 70.6391 11.2907C70.1327 11.2907 69.6977 11.3835 69.334 11.5689C68.9702 11.7543 68.7919 12.0182 68.7991 12.3605C68.7919 12.603 68.8953 12.8277 69.1093 13.0345C69.3304 13.2413 69.7547 13.4018 70.3824 13.5159L73.7202 14.115C75.4033 14.4217 76.655 14.9388 77.4752 15.6662C78.3025 16.3866 78.7197 17.353 78.7268 18.5654C78.7197 19.7351 78.3702 20.7514 77.6784 21.6143C76.9938 22.4702 76.0559 23.1335 74.8648 23.6042C73.6809 24.0678 72.3294 24.2995 70.8103 24.2995C68.2998 24.2995 66.3349 23.786 64.9157 22.759C63.5035 21.732 62.7154 20.3769 62.5514 18.6938H68.4139C68.4924 19.2144 68.7491 19.6174 69.1842 19.9027C69.6264 20.1808 70.1827 20.3199 70.8531 20.3199C71.3951 20.3199 71.8409 20.2272 72.1903 20.0417C72.5469 19.8563 72.7288 19.5924 72.7359 19.2501C72.7288 18.9363 72.5719 18.6866 72.2652 18.5012C71.9657 18.3158 71.495 18.166 70.8531 18.0519L67.9432 17.5384C66.2672 17.246 65.012 16.6897 64.1775 15.8695C63.3431 15.0493 62.9294 13.9938 62.9365 12.7029C62.9294 11.5618 63.2289 10.5954 63.8352 9.80371C64.4485 9.00492 65.3222 8.3987 66.4562 7.98504C67.5973 7.56425 68.9488 7.35386 70.5107 7.35386C72.8857 7.35386 74.7579 7.84597 76.1272 8.83019C77.5037 9.81441 78.2276 11.1766 78.2989 12.9168ZM80.9895 30.1621V7.56782H86.852V10.4349H86.9804C87.1943 9.87859 87.5081 9.36865 87.9218 8.90507C88.3355 8.43436 88.849 8.05993 89.4623 7.78178C90.0757 7.4965 90.7889 7.35386 91.6019 7.35386C92.686 7.35386 93.7166 7.64271 94.6937 8.2204C95.6779 8.79809 96.4767 9.70743 97.09 10.9484C97.7105 12.1894 98.0207 13.8012 98.0207 15.7839C98.0207 17.681 97.7248 19.2536 97.1328 20.5017C96.548 21.7498 95.7635 22.6806 94.7792 23.2939C93.8021 23.9073 92.7288 24.214 91.5591 24.214C90.7889 24.214 90.1006 24.0892 89.4944 23.8395C88.8953 23.5828 88.3818 23.2369 87.9539 22.8018C87.5331 22.3596 87.2086 21.8604 86.9804 21.3041H86.8948V30.1621H80.9895ZM86.7664 15.7839C86.7664 16.5827 86.8698 17.2745 87.0767 17.8593C87.2906 18.437 87.5902 18.8863 87.9753 19.2073C88.3675 19.5211 88.8347 19.678 89.3767 19.678C89.9188 19.678 90.3788 19.5247 90.7568 19.218C91.1419 18.9042 91.4343 18.4584 91.634 17.8807C91.8408 17.2959 91.9443 16.597 91.9443 15.7839C91.9443 14.9709 91.8408 14.2755 91.634 13.6978C91.4343 13.113 91.1419 12.6672 90.7568 12.3605C90.3788 12.0467 89.9188 11.8898 89.3767 11.8898C88.8347 11.8898 88.3675 12.0467 87.9753 12.3605C87.5902 12.6672 87.2906 13.113 87.0767 13.6978C86.8698 14.2755 86.7664 14.9709 86.7664 15.7839ZM108.411 24.2995C106.628 24.2995 105.102 23.9465 103.832 23.2404C102.563 22.5272 101.589 21.5359 100.912 20.2664C100.234 18.9898 99.8956 17.5099 99.8956 15.8267C99.8956 14.1435 100.234 12.6672 100.912 11.3977C101.589 10.1211 102.563 9.12973 103.832 8.42366C105.102 7.71046 106.628 7.35386 108.411 7.35386C110.194 7.35386 111.72 7.71046 112.99 8.42366C114.259 9.12973 115.233 10.1211 115.911 11.3977C116.588 12.6672 116.927 14.1435 116.927 15.8267C116.927 17.5099 116.588 18.9898 115.911 20.2664C115.233 21.5359 114.259 22.5272 112.99 23.2404C111.72 23.9465 110.194 24.2995 108.411 24.2995ZM108.454 19.9347C108.953 19.9347 109.385 19.7671 109.748 19.4319C110.112 19.0967 110.394 18.6189 110.594 17.9984C110.793 17.3779 110.893 16.6398 110.893 15.7839C110.893 14.9209 110.793 14.1828 110.594 13.5694C110.394 12.9489 110.112 12.4711 109.748 12.1359C109.385 11.8007 108.953 11.6331 108.454 11.6331C107.926 11.6331 107.473 11.8007 107.095 12.1359C106.717 12.4711 106.429 12.9489 106.229 13.5694C106.029 14.1828 105.929 14.9209 105.929 15.7839C105.929 16.6398 106.029 17.3779 106.229 17.9984C106.429 18.6189 106.717 19.0967 107.095 19.4319C107.473 19.7671 107.926 19.9347 108.454 19.9347ZM119.323 24V7.56782H125.057V10.6916H125.229C125.528 9.53626 126.002 8.69111 126.651 8.15621C127.307 7.62131 128.074 7.35386 128.951 7.35386C129.208 7.35386 129.461 7.37526 129.711 7.41805C129.968 7.45371 130.214 7.5072 130.449 7.57852V12.6173C130.157 12.5174 129.797 12.4426 129.369 12.3926C128.941 12.3427 128.573 12.3177 128.267 12.3177C127.689 12.3177 127.168 12.4497 126.705 12.7136C126.248 12.9703 125.888 13.3341 125.624 13.8048C125.36 14.2684 125.229 14.814 125.229 15.4416V24H119.323ZM142.862 7.56782V11.847H132.035V7.56782H142.862ZM134.132 3.63094H140.037V18.7152C140.037 18.9434 140.076 19.136 140.155 19.2929C140.233 19.4426 140.355 19.5567 140.519 19.6352C140.683 19.7065 140.893 19.7422 141.15 19.7422C141.328 19.7422 141.535 19.7208 141.77 19.678C142.013 19.6352 142.191 19.5995 142.305 19.571L143.161 23.7219C142.897 23.8003 142.519 23.8966 142.027 24.0107C141.542 24.1248 140.964 24.1997 140.294 24.2354C138.939 24.3067 137.801 24.1676 136.881 23.8181C135.961 23.4615 135.27 22.9017 134.806 22.1385C134.342 21.3754 134.118 20.4197 134.132 19.2715V3.63094ZM149.85 24.2568C148.802 24.2568 147.874 24.0856 147.069 23.7432C146.27 23.3938 145.642 22.866 145.186 22.1599C144.729 21.4539 144.501 20.5552 144.501 19.464C144.501 18.5654 144.654 17.7987 144.961 17.164C145.268 16.5221 145.696 15.9979 146.245 15.5913C146.794 15.1848 147.432 14.8746 148.16 14.6606C148.894 14.4467 149.686 14.3076 150.535 14.2434C151.455 14.1721 152.193 14.0865 152.749 13.9866C153.313 13.8797 153.719 13.7335 153.969 13.548C154.218 13.3555 154.343 13.1023 154.343 12.7885V12.7457C154.343 12.3177 154.179 11.9897 153.851 11.7614C153.523 11.5332 153.102 11.4191 152.589 11.4191C152.025 11.4191 151.565 11.5439 151.209 11.7935C150.859 12.036 150.649 12.4105 150.578 12.9168H145.143C145.214 11.9184 145.532 10.9983 146.095 10.1567C146.666 9.30803 147.496 8.63049 148.588 8.12412C149.679 7.61061 151.041 7.35386 152.674 7.35386C153.851 7.35386 154.907 7.49293 155.841 7.77108C156.775 8.0421 157.57 8.42366 158.227 8.91577C158.883 9.40075 159.382 9.97131 159.724 10.6275C160.074 11.2765 160.249 11.9825 160.249 12.7457V24H154.728V21.6892H154.6C154.272 22.3026 153.873 22.7983 153.402 23.1763C152.938 23.5542 152.407 23.8288 151.808 24C151.216 24.1712 150.563 24.2568 149.85 24.2568ZM151.776 20.5338C152.225 20.5338 152.646 20.4411 153.038 20.2557C153.437 20.0703 153.762 19.8028 154.012 19.4533C154.261 19.1039 154.386 18.6795 154.386 18.1803V16.8109C154.229 16.8751 154.062 16.9357 153.883 16.9928C153.712 17.0498 153.527 17.1033 153.327 17.1533C153.134 17.2032 152.928 17.2495 152.706 17.2923C152.492 17.3351 152.268 17.3744 152.032 17.41C151.576 17.4813 151.202 17.599 150.909 17.763C150.624 17.92 150.41 18.1161 150.267 18.3514C150.132 18.5797 150.064 18.8364 150.064 19.1217C150.064 19.5781 150.224 19.9276 150.545 20.1701C150.866 20.4126 151.276 20.5338 151.776 20.5338ZM172.87 7.56782V11.847H162.043V7.56782H172.87ZM164.14 3.63094H170.045V18.7152C170.045 18.9434 170.084 19.136 170.163 19.2929C170.241 19.4426 170.363 19.5567 170.527 19.6352C170.691 19.7065 170.901 19.7422 171.158 19.7422C171.336 19.7422 171.543 19.7208 171.778 19.678C172.021 19.6352 172.199 19.5995 172.313 19.571L173.169 23.7219C172.905 23.8003 172.527 23.8966 172.035 24.0107C171.55 24.1248 170.972 24.1997 170.302 24.2354C168.947 24.3067 167.809 24.1676 166.889 23.8181C165.969 23.4615 165.277 22.9017 164.814 22.1385C164.35 21.3754 164.126 20.4197 164.14 19.2715V3.63094ZM175.279 24V7.56782H181.185V24H175.279ZM178.232 5.85613C177.433 5.85613 176.748 5.59225 176.178 5.06448C175.607 4.53671 175.322 3.90196 175.322 3.16023C175.322 2.4185 175.607 1.78375 176.178 1.25598C176.748 0.72821 177.433 0.464325 178.232 0.464325C179.038 0.464325 179.723 0.72821 180.286 1.25598C180.857 1.78375 181.142 2.4185 181.142 3.16023C181.142 3.90196 180.857 4.53671 180.286 5.06448C179.723 5.59225 179.038 5.85613 178.232 5.85613ZM192.11 24.2995C190.327 24.2995 188.801 23.9465 187.531 23.2404C186.262 22.5272 185.288 21.5359 184.611 20.2664C183.933 18.9898 183.594 17.5099 183.594 15.8267C183.594 14.1435 183.933 12.6672 184.611 11.3977C185.288 10.1211 186.262 9.12973 187.531 8.42366C188.801 7.71046 190.327 7.35386 192.11 7.35386C193.893 7.35386 195.419 7.71046 196.689 8.42366C197.958 9.12973 198.932 10.1211 199.609 11.3977C200.287 12.6672 200.626 14.1435 200.626 15.8267C200.626 17.5099 200.287 18.9898 199.609 20.2664C198.932 21.5359 197.958 22.5272 196.689 23.2404C195.419 23.9465 193.893 24.2995 192.11 24.2995ZM192.153 19.9347C192.652 19.9347 193.083 19.7671 193.447 19.4319C193.811 19.0967 194.093 18.6189 194.292 17.9984C194.492 17.3779 194.592 16.6398 194.592 15.7839C194.592 14.9209 194.492 14.1828 194.292 13.5694C194.093 12.9489 193.811 12.4711 193.447 12.1359C193.083 11.8007 192.652 11.6331 192.153 11.6331C191.625 11.6331 191.172 11.8007 190.794 12.1359C190.416 12.4711 190.127 12.9489 189.928 13.5694C189.728 14.1828 189.628 14.9209 189.628 15.7839C189.628 16.6398 189.728 17.3779 189.928 17.9984C190.127 18.6189 190.416 19.0967 190.794 19.4319C191.172 19.7671 191.625 19.9347 192.153 19.9347ZM208.927 14.7569V24H203.022V7.56782H208.628V10.6916H208.799C209.155 9.65037 209.783 8.83375 210.682 8.2418C211.588 7.64984 212.643 7.35386 213.848 7.35386C215.011 7.35386 216.02 7.62131 216.876 8.15621C217.739 8.68398 218.406 9.41145 218.876 10.3386C219.354 11.2658 219.59 12.3249 219.582 13.5159V24H213.677V14.7569C213.684 13.9438 213.477 13.3055 213.057 12.842C212.643 12.3784 212.065 12.1466 211.324 12.1466C210.839 12.1466 210.414 12.2536 210.051 12.4675C209.694 12.6743 209.419 12.9739 209.227 13.3662C209.034 13.7513 208.934 14.2149 208.927 14.7569Z" fill="#3265B1"/>
</svg>
